HIERARCHY
ROOT Hips
{
    OFFSET 0.000000 0.000000 0.000000
    CHANNELS 6 Xposition Yposition Zposition Zrotation Xrotation Yrotation
    JOINT Spine
    {
        OFFSET -0.000000 6.993131 0.000000
        CHANNELS 3 Zrotation Xrotation Yrotation
        JOINT Spine1
        {
            OFFSET -0.000000 20.649729 0.000000
            CHANNELS 3 Zrotation Xrotation Yrotation
            JOINT Neck
            {
                OFFSET -0.000000 20.564924 1.869539
                CHANNELS 3 Zrotation Xrotation Yrotation
                JOINT Head
                {
                    OFFSET -0.000000 11.939490 -1.705642
                    CHANNELS 3 Zrotation Xrotation Yrotation
                    End Site
                    {
                        OFFSET -0.000000 21.320518 0.000000
                    }
                }
            }
            JOINT LeftShoulder
            {
                OFFSET 3.446977 19.850397 -0.038759
                CHANNELS 3 Zrotation Xrotation Yrotation
                JOINT LeftArm
                {
                    OFFSET 7.083611 0.000000 0.000000
                    CHANNELS 3 Zrotation Xrotation Yrotation
                    JOINT LeftForeArm
                    {
                        OFFSET 32.044487 0.000000 0.000000
                        CHANNELS 3 Zrotation Xrotation Yrotation
                        JOINT LeftHand
                        {
                            OFFSET 22.068741 0.000000 0.000000
                            CHANNELS 3 Zrotation Xrotation Yrotation
                            End Site
                            {
                                OFFSET 12.792312 0.000000 0.000000
                            }
                        }
                    }
                }
            }
            JOINT RightShoulder
            {
                OFFSET -3.365844 19.850397 -0.038759
                CHANNELS 3 Zrotation Xrotation Yrotation
                JOINT RightArm
                {
                    OFFSET -7.083611 0.000000 0.000000
                    CHANNELS 3 Zrotation Xrotation Yrotation
                    JOINT RightForeArm
                    {
                        OFFSET -32.044487 0.000000 0.000000
                        CHANNELS 3 Zrotation Xrotation Yrotation
                        JOINT RightHand
                        {
                            OFFSET -22.068741 0.000000 0.000000
                            CHANNELS 3 Zrotation Xrotation Yrotation
                            End Site
                            {
                                OFFSET -12.792312 0.000000 0.000000
                            }
                        }
                    }
                }
            }
        }
    }
    JOINT LeftUpLeg
    {
        OFFSET 8.528208 0.000000 0.000000
        CHANNELS 3 Zrotation Xrotation Yrotation
        JOINT LeftLeg
        {
            OFFSET -0.000000 -31.874865 0.000000
            CHANNELS 3 Zrotation Xrotation Yrotation
            JOINT LeftFoot
            {
                OFFSET -0.000000 -38.221939 0.000000
                CHANNELS 3 Zrotation Xrotation Yrotation
                JOINT LeftToeBase
                {
                    OFFSET -0.000000 -5.543335 12.792312
                    CHANNELS 3 Zrotation Xrotation Yrotation
                    End Site
                    {
                        OFFSET -0.000000 0.000000 3.411283
                    }
                }
            }
        }
    }
    JOINT RightUpLeg
    {
        OFFSET -8.528208 0.000000 0.000000
        CHANNELS 3 Zrotation Xrotation Yrotation
        JOINT RightLeg
        {
            OFFSET -0.000000 -31.874865 0.000000
            CHANNELS 3 Zrotation Xrotation Yrotation
            JOINT RightFoot
            {
                OFFSET -0.000000 -38.221939 0.000000
                CHANNELS 3 Zrotation Xrotation Yrotation
                JOINT RightToeBase
                {
                    OFFSET -0.000000 -5.543335 12.792312
                    CHANNELS 3 Zrotation Xrotation Yrotation
                    End Site
                    {
                        OFFSET -0.000000 0.000000 3.411283
                    }
                }
            }
        }
    }
}
MOTION
Frames:    14
Frame Time:    0.008333
10.870067    85.155174    30.707586    -2.318213    2.907518    91.019646    0.792162    -6.990421    -2.241632    -8.428263    5.256071    -1.902476    5.284679    7.949127    2.191599    -0.147637    -8.181557    1.840972    4.395422    10.116035    -3.062317    -64.247345    55.320557    -4.849542    0.687208    -19.314415    -35.901527    -3.219040    -19.064220    -1.503194    12.666384    12.694543    0.662640    40.482872    58.778851    16.059399    -8.145701    -10.078527    31.570824    10.550810    -8.038720    -2.613045    -7.167336    -18.997437    -1.487945    4.922851    32.540264    9.826836    -8.194318    31.153767    1.690213    0.000000    0.000000    0.000000    -10.171500    -13.801654    -3.144732    9.799401    30.239981    -10.411325    11.204929    22.848312    -7.740698    0.000000    0.000000    0.000000    
10.877859    84.079506    30.722744    -2.140571    2.814795    91.024559    0.906283    -6.980323    -2.272539    -8.528881    5.447144    -1.921311    5.553479    8.202527    2.251216    -0.688214    -8.458210    1.778758    4.346196    10.142771    -2.925229    -64.096802    55.278519    -4.925735    0.775877    -19.349771    -36.277325    -3.401222    -19.062389    -1.687785    12.648623    13.026547    0.576514    39.789783    58.471348    16.897316    -8.002465    -10.157177    31.596823    10.400152    -8.140649    -2.479002    -7.102303    -19.250895    -1.589770    4.844682    33.533974    10.359001    -8.168376    31.012232    1.638205    0.000000    0.000000    0.000000    -10.018015    -14.059231    -3.528729    9.683880    31.310963    -10.438396    11.836893    22.859142    -7.781608    0.000000    0.000000    0.000000    
10.865339    82.943703    30.729956    -1.961593    2.760817    91.058441    1.095125    -6.951419    -2.371301    -8.824466    5.702085    -1.997482    5.487230    8.344247    2.350904    -0.582359    -8.776934    1.915706    4.437457    10.071397    -2.770792    -64.305969    54.844406    -4.823473    0.962198    -19.235704    -36.446934    -3.463959    -18.884565    -1.808484    12.624129    13.041659    0.871708    39.867718    58.201496    16.907593    -7.901117    -10.218700    31.665859    10.277204    -8.205858    -2.283178    -7.095768    -19.565825    -1.601991    5.085459    34.740322    10.558100    -8.936637    29.912954    0.451047    0.000000    0.000000    0.000000    -9.873719    -14.239852    -3.849369    9.555801    32.417423    -10.866379    14.142145    20.257143    -7.379815    0.000000    0.000000    0.000000    
10.881465    81.707687    30.749147    -1.694058    2.679786    91.002693    1.313418    -6.668021    -2.416744    -9.162273    5.598186    -2.044355    5.533142    8.814804    2.386679    -0.533804    -9.284689    1.981540    4.412275    10.306238    -2.529310    -63.863010    54.408043    -5.153266    0.681390    -18.983810    -36.707893    -3.225720    -18.715786    -2.028207    12.770167    13.052629    1.083645    40.032818    58.015312    16.691469    -7.881293    -10.201690    31.699490    10.662004    -8.160596    -1.861731    -6.981754    -19.784111    -1.488534    5.158024    36.080704    10.494318    -9.260086    27.464361    -0.915595    0.000000    0.000000    0.000000    -9.702826    -14.527906    -3.877370    9.655849    34.207512    -11.385547    13.025352    16.734732    -5.179305    0.000000    0.000000    0.000000    
10.817749    80.419022    30.755424    -1.556597    2.654963    90.958275    1.401197    -6.438983    -2.532281    -9.260649    5.613641    -2.156075    5.200344    8.940270    2.476951    -0.244683    -9.644907    2.167742    4.359113    10.149932    -2.303532    -64.253136    54.418201    -4.709293    0.834856    -19.330402    -37.149632    -3.444571    -18.993742    -2.521684    12.574001    13.108174    1.318760    39.958050    57.838341    16.990417    -7.840226    -10.230429    31.711813    10.567636    -8.191420    -1.782634    -6.925850    -20.344555    -1.492118    5.147379    37.915359    10.178773    -10.398640    24.414871    -2.201756    0.000000    0.000000    0.000000    -9.549030    -15.080900    -4.070608    9.505875    36.326496    -11.778982    13.721105    12.908598    -3.638447    0.000000    0.000000    0.000000    
10.806376    79.023048    30.773872    -1.231022    2.548081    90.993446    1.533179    -5.888884    -2.587501    -9.439965    5.321565    -2.226669    5.462549    9.351668    2.502734    -0.495978    -10.142963    2.138731    4.410270    10.185687    -2.200302    -64.180405    54.222511    -4.776498    0.748813    -19.215502    -37.269478    -3.523983    -18.904839    -2.474692    12.777222    13.185336    1.406283    39.977055    57.737549    16.831720    -7.828343    -10.224180    31.801189    10.045177    -8.189098    -1.958247    -6.824843    -20.727102    -1.702333    5.004631    40.421844    10.686774    -11.110793    18.832264    -3.551988    0.000000    0.000000    0.000000    -9.316927    -15.469585    -4.298707    9.458509    38.992756    -11.774280    13.765377    7.314745    -2.304957    0.000000    0.000000    0.000000    
10.777393    77.574226    30.803669    -0.895015    2.474128    91.009735    1.557939    -5.388684    -2.632366    -9.505512    5.254016    -2.268551    5.279353    9.259204    2.480065    -0.092564    -10.170426    2.214678    4.522768    10.200004    -2.112761    -64.283134    54.261818    -4.775863    0.819568    -19.470703    -37.588902    -3.175185    -19.141542    -2.518985    12.776677    12.838290    1.413842    40.250278    58.020447    16.551016    -7.886762    -10.297536    31.931543    9.961134    -8.219363    -1.773925    -6.930326    -21.332605    -1.432065    5.732253    43.423313    10.771552    -11.672192    12.425270    -5.168705    0.000000    0.000000    0.000000    -9.090971    -15.942631    -4.399758    9.316521    41.750053    -11.548740    12.980678    1.518817    -0.768125    0.000000    0.000000    0.000000    
10.727991    76.054329    30.836218    -0.511939    2.359783    91.065285    1.683880    -4.665392    -2.734681    -9.655588    4.960612    -2.384043    5.492424    9.242266    2.396880    -0.325613    -10.196838    2.059960    4.574330    10.170627    -1.928810    -64.255783    54.490845    -4.755833    0.788987    -19.681942    -37.827610    -2.813210    -19.362450    -2.793703    12.855189    13.131313    1.394112    39.822933    57.829510    17.074306    -7.899574    -10.435468    31.965487    9.595469    -8.329644    -1.573064    -6.839861    -22.026789    -1.373261    6.334948    46.462818    9.633590    -12.358557    6.798819    -6.355425    0.000000    0.000000    0.000000    -8.852672    -16.270367    -4.422999    9.204514    44.201820    -10.713661    12.467075    -4.088748    0.072529    0.000000    0.000000    0.000000    
10.669980    74.478210    30.870529    -0.091262    2.324407    91.114342    1.643240    -3.933775    -2.743184    -9.708939    4.857440    -2.386844    5.593163    9.302460    2.289078    -0.301966    -10.698529    1.948452    4.835437    9.993379    -1.923244    -64.354195    54.703903    -4.896513    0.979272    -19.822844    -37.810040    -2.931543    -19.436348    -2.927204    12.941967    12.884110    1.181591    39.868629    57.903015    17.065105    -8.017318    -10.419331    32.102798    9.418013    -8.256611    -1.444281    -6.680836    -22.614187    -1.625675    6.544040    49.066620    8.126742    -12.859792    0.917475    -7.669421    0.000000    0.000000    0.000000    -8.701657    -16.581673    -4.222839    9.237119    46.470192    -9.940618    11.570944    -9.829960    0.746290    0.000000    0.000000    0.000000    
10.623202    72.814240    30.906605    0.386177    2.224162    91.132652    1.750136    -3.258105    -2.721504    -9.918066    5.060894    -2.331874    5.995726    8.734539    2.256779    -0.589599    -10.679510    1.790504    5.339832    9.603748    -1.854445    -64.711205    54.279720    -5.036333    0.883188    -19.552296    -37.735371    -2.342574    -19.209381    -3.014456    12.878449    12.490475    0.914476    40.066727    58.099148    17.158484    -8.184736    -10.513982    32.249538    9.177595    -8.276035    -1.272689    -6.319228    -23.184374    -1.825416    6.329145    51.649723    7.486092    -12.913280    -5.383394    -9.106676    0.000000    0.000000    0.000000    -8.446807    -16.873705    -3.940754    9.440742    48.755894    -9.884017    9.939869    -15.624427    1.418673    0.000000    0.000000    0.000000    
10.542555    71.193794    30.963152    0.925542    2.058294    91.325836    1.865217    -2.304254    -2.737369    -10.080340    5.041698    -2.329939    6.528782    8.367377    2.096534    -1.025699    -10.938409    1.460551    5.918324    9.230568    -1.881418    -65.006416    54.555225    -5.208703    0.966109    -19.801327    -37.612457    -2.311010    -19.426735    -3.400884    12.971766    12.110749    0.317147    39.941830    58.334633    17.507772    -8.257077    -10.783211    32.378281    9.054949    -8.490486    -0.960783    -5.949988    -23.727446    -1.720821    6.632270    54.111454    6.554729    -13.270980    -11.121236    -10.711838    0.000000    0.000000    0.000000    -8.113760    -17.081961    -3.857088    9.780107    51.014515    -10.145965    7.343725    -21.514711    1.258576    0.000000    0.000000    0.000000    
10.485967    69.531754    30.997730    1.559157    2.065038    91.321739    1.805506    -1.333158    -2.618995    -10.225099    5.181018    -2.176155    7.137657    7.889241    1.841878    -1.609904    -11.214111    0.978437    6.383154    8.761729    -2.073015    -65.330284    54.687126    -5.288642    1.000189    -20.049009    -37.432423    -1.702644    -19.676992    -3.810546    13.152829    11.754254    -0.141265    40.047672    58.218941    17.593996    -8.169815    -10.961952    32.446556    8.397049    -8.682714    -0.930098    -5.738540    -24.215748    -1.711830    6.146437    56.764309    7.389913    -12.511493    -17.436350    -12.310240    0.000000    0.000000    0.000000    -7.932864    -17.463968    -3.649619    10.424007    53.728573    -10.345634    3.886526    -27.325369    -0.345286    0.000000    0.000000    0.000000    
10.475828    67.992050    31.048002    2.292565    1.821297    91.471321    1.832615    -0.025175    -2.289831    -10.244749    4.773908    -1.862080    8.355810    7.329052    1.492882    -2.704606    -10.802159    0.226669    6.711719    8.488626    -2.798657    -65.646370    54.322075    -5.542482    1.116457    -20.124802    -36.462875    -1.676263    -19.714119    -4.714510    13.990288    11.206556    -1.178756    40.232037    58.496990    16.930882    -8.011537    -11.528378    32.266975    8.183765    -9.273119    -0.399106    -5.406533    -24.687529    -1.477259    6.287370    59.570034    6.617763    -10.855794    -23.638226    -12.014196    0.000000    0.000000    0.000000    -7.559576    -17.730753    -3.389303    12.135734    56.401005    -10.527075    -0.848199    -32.322777    -4.711910    0.000000    0.000000    0.000000    
10.461736    66.607048    31.079561    3.034057    1.651861    91.568489    1.683568    1.796894    -1.847750    -10.225173    3.246490    -1.530860    9.719622    7.845706    1.010599    -3.594697    -11.044842    -0.558807    6.449665    8.841222    -3.786594    -65.378120    53.662605    -6.024405    1.288913    -20.098017    -34.908043    -1.285633    -19.656744    -5.692371    15.554091    11.481829    -2.416223    39.569576    58.509907    16.450209    -7.601245    -12.291951    31.847036    7.957973    -10.125483    0.525781    -5.084463    -25.148733    -1.369517    5.508087    62.350357    6.390334    -8.281023    -29.094187    -10.108986    0.000000    0.000000    0.000000    -7.380672    -18.168154    -2.973172    14.813360    59.076641    -11.982003    -5.065674    -35.700912    -8.824647    0.000000    0.000000    0.000000    
